<svg xmlns="http://www.w3.org/2000/svg" width="26.257" height="25.495" viewBox="0 0 26.257 25.495"><path d="M10.859,14.1l3.122-3.122A2.833,2.833,0,0,0,14.512,7.7l-.177-.354a2.833,2.833,0,0,1,.531-3.271L18.737.207a.708.708,0,0,1,1.134.184l1.564,3.128a6.216,6.216,0,0,1-1.164,7.175l-8.5,8.5A7.688,7.688,0,0,1,3.905,21.05L.485,19.91a.708.708,0,0,1-.277-1.173l3.756-3.756a2.833,2.833,0,0,1,3.271-.531l.354.177A2.833,2.833,0,0,0,10.859,14.1Z" transform="translate(4.165 4.05)" fill="#129b67"></path><path d="M4.564,4.564A15.551,15.551,0,0,1,17.032.067l-.261,2.822A12.748,12.748,0,0,0,2.888,16.756l-2.822.259A15.549,15.549,0,0,1,4.564,4.564ZM8.571,8.572a9.892,9.892,0,0,1,7.965-2.859l-.27,2.82a7.083,7.083,0,0,0-7.735,7.712l-2.822.264A9.9,9.9,0,0,1,8.571,8.572Z" fill="#129b67" opacity="0.3"></path></svg>