<svg xmlns="http://www.w3.org/2000/svg" xmlns:xlink="http://www.w3.org/1999/xlink" width="1159" height="229" viewBox="0 0 1159 229"><defs><linearGradient id="a" x1="0.451" y1="1" x2="0.549" gradientUnits="objectBoundingBox"><stop offset="0" stop-color="#2e3443"></stop><stop offset="0.497" stop-color="#32334a"></stop><stop offset="1" stop-color="#3b4157"></stop></linearGradient><clipPath id="b"><rect width="1159" height="229" rx="10" transform="translate(217 4513.936)" fill="url(#a)"></rect></clipPath><linearGradient id="d" x1="0.5" y1="1" x2="0.5" gradientUnits="objectBoundingBox"><stop offset="0" stop-color="#569acc"></stop><stop offset="1" stop-color="#e26565"></stop></linearGradient></defs><g transform="translate(-217 -4513.936)" clip-path="url(#b)"><rect width="1159" height="229" rx="10" transform="translate(217 4513.936)" fill="url(#a)"></rect><path d="M436.011,325.224c16.183-72.285-69.836-163.551-131.134-224.9-61.721-61.358-98.3-92.789-138.93-96.6C124.9.329,79.8,24.134,39.041,73.222c-40.767,48.668-44.782,93.907-20.335,170C43.144,318.9,96.026,424.584,198.092,437.265,300.58,449.955,419.406,397.5,436.011,325.224Z" transform="translate(1035.199 4758.238) rotate(139)" fill="url(#d)"></path></g></svg>