<!-- sample rectangle -->
<svg xmlns="http://www.w3.org/2000/svg" xmlns:xlink="http://www.w3.org/1999/xlink" id="Layer_1" x="0px" y="0px" viewBox="0 0 66 66" style="enable-background:new 0 0 66 66;" xml:space="preserve"><style type="text/css">	.st0{fill:#BBFFF0;}	.st1{fill:#5DCEB3;}	.st2{fill:#41B79D;}</style><circle class="st0" cx="33" cy="33" r="33"></circle><path class="st1" d="M41.1,21.2c-1,2.9-6.3,9-6.5,9.2l0,0c-0.1,0.2-0.4,0.3-0.6,0.3c-0.2,0-0.4-0.1-0.6-0.3 c-0.2-0.3-5.7-6.9-6.6-9.8c-0.7-2-0.7-5.1,0.8-7.3c1.3-1.9,3.4-3,6.4-3.2c1.6-0.1,4.7,0.6,6.5,3C42,15.1,42.3,17.9,41.1,21.2 L41.1,21.2z"></path><path class="st2" d="M19.2,44.2c-0.2,0.4-0.8,0.6-1.2,0.4c-0.4-0.2-0.6-0.8-0.4-1.2l0,0c0.2-0.4,0.8-0.6,1.2-0.4 C19.2,43.2,19.4,43.8,19.2,44.2z M21.1,44.5L21.1,44.5c-0.4,0.1-0.6,0.4-0.6,0.8c0,0.4,0.2,0.7,0.5,0.9s0.7,0.1,1-0.1 c0.3-0.2,0.4-0.6,0.3-1c-0.1-0.2-0.2-0.4-0.5-0.5C21.6,44.4,21.3,44.4,21.1,44.5L21.1,44.5z M53.9,37v5.4c0,0.3-0.2,0.6-0.4,0.7 l-18.8,9.4c-0.2,0.1-0.5,0.1-0.7,0l-10.1-5.2c-0.2-0.1-0.3-0.3-0.4-0.4c-0.1-0.2,0-0.4,0-0.6c0.1-0.2,0.3-0.3,0.4-0.4 c0.2-0.1,0.4,0,0.6,0l9,4.6v-3.7l-16.8-8.7v4.2c0,0.4-0.3,0.8-0.8,0.8s-0.8-0.3-0.8-0.8V37c0-0.3,0.2-0.6,0.4-0.7l15-6.9l0,0 c0.2-0.1,0.4-0.1,0.6,0s0.3,0.2,0.4,0.4c0.1,0.2,0.1,0.4,0,0.6s-0.2,0.3-0.4,0.4l-0.6,0.3l3.9,2l3.7-1.9l-0.6-0.3l0,0 c-0.2-0.1-0.3-0.2-0.4-0.4c-0.1-0.2-0.1-0.4,0-0.6s0.2-0.3,0.4-0.4s0.4-0.1,0.6,0c2.8,1.3,0,0,15.1,6.8l0,0 C53.7,36.5,53.9,36.7,53.9,37L53.9,37z M38.9,43.3L34.6,41L30,43.4l4.3,2.2L38.9,43.3z M28.3,42.5l4.6-2.3l-4.4-2.3l-4.6,2.4 L28.3,42.5z M36.2,34l4.4,2.2l4.1-2.1L40,32L36.2,34z M30.2,37.1l4.4,2.3l4.4-2.2L34.6,35L30.2,37.1z M45,40.2l-4.5-2.3l-4.4,2.2 l4.4,2.3L45,40.2z M51.3,37.1l-4.9-2.2l-4.2,2.2l4.5,2.3L51.3,37.1z M28.9,32l-4.6,2.1l4.2,2.2l4.3-2.2L28.9,32z M17.7,37.1l4.6,2.3 l4.6-2.4l-4.3-2.2L17.7,37.1z M52.3,42v-3.7L35,47v3.7L52.3,42z M34.5,16.1c-0.4,0-0.9,0.2-1.2,0.5s-0.5,0.7-0.5,1.2 c0,0.4,0.2,0.9,0.5,1.2c0.3,0.3,0.7,0.5,1.2,0.5s0.9-0.2,1.2-0.5s0.5-0.7,0.5-1.2c0-0.4-0.2-0.9-0.5-1.2S35,16.1,34.5,16.1 L34.5,16.1z M37.7,17.7L37.7,17.7c0-0.8-0.3-1.7-0.9-2.3c-0.6-0.6-1.4-0.9-2.3-0.9s-1.7,0.3-2.3,0.9c-0.6,0.6-0.9,1.4-0.9,2.3 c0,0.8,0.3,1.7,0.9,2.3c0.6,0.6,1.4,0.9,2.3,0.9c0.8,0,1.7-0.3,2.3-0.9C37.4,19.4,37.7,18.6,37.7,17.7L37.7,17.7z"></path></svg>