<svg xmlns="http://www.w3.org/2000/svg" width="100" height="100" viewBox="0 0 100 100"><circle cx="50" cy="50" r="50" fill="#b7eef5"></circle><path d="M0,37.992A4,4,0,0,0,4,42H36a4.008,4.008,0,0,0,4-4.008V4.008A4,4,0,0,0,36,0H4A4.008,4.008,0,0,0,0,4.008Z" transform="translate(24 34)" fill="#008aba"></path><path d="M40,4.008A4,4,0,0,0,36,0H4A4.008,4.008,0,0,0,0,4.008V37.992A4,4,0,0,0,4,42H36a4.008,4.008,0,0,0,4-4.008Z" transform="translate(36 24)" fill="#6abbd7"></path><path d="M2,20a2,2,0,0,1,0-4H16a2,2,0,0,1,0,4Zm0-8A2,2,0,0,1,2,8H15a2,2,0,1,1,0,4ZM2,4A2,2,0,1,1,2,0H21a2,2,0,1,1,0,4Z" transform="translate(44 32)" fill="#b7eef5"></path></svg>