<svg xmlns="http://www.w3.org/2000/svg" width="100" height="100" viewBox="0 0 100 100"><circle cx="50" cy="50" r="50" fill="#c4c3ff"></circle><path d="M45.8,38.209a2.5,2.5,0,0,1,0-3.535,21.5,21.5,0,0,0,0-30.406A2.5,2.5,0,0,1,49.338.733a26.5,26.5,0,0,1,0,37.476,2.5,2.5,0,0,1-3.536,0Zm-38.04,0a26.5,26.5,0,0,1,0-37.476A2.5,2.5,0,0,1,11.3,4.268a21.5,21.5,0,0,0,0,30.406,2.5,2.5,0,1,1-3.535,3.535ZM39.8,30.84a2.5,2.5,0,0,1,0-3.535,11.341,11.341,0,0,0,0-16.037,2.5,2.5,0,0,1,3.535-3.536,16.34,16.34,0,0,1,0,23.108,2.5,2.5,0,0,1-3.535,0Zm-26.041,0a16.34,16.34,0,0,1,0-23.108A2.5,2.5,0,1,1,17.3,11.268a11.341,11.341,0,0,0,0,16.037,2.5,2.5,0,1,1-3.535,3.535Z" transform="translate(21 26)" fill="#8784ec" opacity="0.9"></path><path d="M4.843,15.353a8,8,0,1,1,6.315,0l.727,24.714A3.793,3.793,0,0,1,8.07,44H7.93a3.792,3.792,0,0,1-3.814-3.933Z" transform="translate(42 37)" fill="#6764cb"></path></svg>