<svg xmlns="http://www.w3.org/2000/svg" width="100" height="100" viewBox="0 0 100 100"><circle cx="50" cy="50" r="50" fill="#b7eef5"></circle><path d="M33.845,16.5c-.491.856-.092,1.47.895,1.367l14.882-1.562a1.23,1.23,0,0,0,1.054-1.838L44.579.715c-.407-.918-1.131-.955-1.623-.1L40.121,5.56A28.329,28.329,0,0,0,.993,38.732,4,4,0,0,0,8.715,36.64a20.325,20.325,0,0,1,27.4-24.1Z" transform="translate(22.345 18.756)" fill="#008aba"></path><path d="M14.322,28.837A20.42,20.42,0,0,0,40.43,20.51a20.219,20.219,0,0,0,2-15.463,4,4,0,0,1,7.722-2.092,28.217,28.217,0,0,1-2.8,21.555,28.423,28.423,0,0,1-37.07,11.27L7.864,39.951c-.5.853-1.227.815-1.631-.092L.145,26.19a1.23,1.23,0,0,1,1.065-1.832l14.959-1.6c1-.107,1.392.5.9,1.358l-2.741,4.717Z" transform="translate(28.14 39.923)" fill="#6abbd7"></path></svg>